<?xml version="1.0" encoding="UTF-8" standalone="no"?>
<!DOCTYPE svg PUBLIC "-//W3C//DTD SVG 1.1//EN" "http://www.w3.org/Graphics/SVG/1.1/DTD/svg11.dtd">
<!-- 由 Microsoft Visio, SVG Export 產生 12.svg 頁-1 -->
<svg xmlns="http://www.w3.org/2000/svg" xmlns:xlink="http://www.w3.org/1999/xlink" xmlns:ev="http://www.w3.org/2001/xml-events"
		xmlns:v="http://schemas.microsoft.com/visio/2003/SVGExtensions/" width="9.52756in" height="5.9117in"
		viewBox="0 0 685.984 425.642" xml:space="preserve" color-interpolation-filters="sRGB" class="st2">
	<v:documentProperties v:langID="1028" v:metric="true" v:viewMarkup="false"/>

	<style type="text/css">
	<![CDATA[
		.st1 {fill:#000000;stroke:none;stroke-linecap:butt;stroke-width:0.1}
		.st2 {fill:none;fill-rule:evenodd;font-size:12px;overflow:visible;stroke-linecap:square;stroke-miterlimit:3}
	]]>
	</style>

	<g v:mID="0" v:index="1" v:groupContext="foregroundPage">
		<title>頁-1</title>
		<v:pageProperties v:drawingScale="0.0393701" v:pageScale="0.0393701" v:drawingUnits="24" v:shadowOffsetX="9"
				v:shadowOffsetY="-9"/>
		<g id="group1299-1" v:mID="1299" v:groupContext="group">
			<title>工作表.1299</title>
			<g id="group1295-2" v:mID="1295" v:groupContext="group">
				<title>工作表.1295</title>
				<g id="shape1289-3" v:mID="1289" v:groupContext="shape" transform="translate(7.03437E-13,425.642) scale(1,-1)">
					<title>工作表.1289</title>
					<path d="M243.1 425.28 C227.34 424.25 214.23 422.07 190.08 416.39 C152.11 407.49 121.93 395.3 97.35 378.94 C39.95
								 340.77 8.7 278.37 2.03 188.81 C0 161.61 0.52 128.01 3.22 105.41 C6.16 81.22 11.32 61.6 18.91 46.03
								 C23.79 35.98 28.99 28.64 35.9 21.96 C51.63 6.71 73 2.03 94.33 9.13 C101.95 11.68 103.82 12.91 110.93
								 20.14 C119.07 28.44 121.21 31.93 123.56 40.83 C124.91 45.95 125.66 51.27 126.14 59.73 C126.97 74.31
								 129.24 83.09 134.96 94.41 C142.3 108.82 154.46 122.49 163.08 125.9 C173.01 129.83 185.79 141.51
								 195.37 155.45 C202.16 165.38 208.31 178.53 211.89 190.8 C214.27 199.06 215.5 205.53 217.09 218 C221.22
								 250.53 234.05 277.34 256.01 299.22 C266.46 309.67 280.6 320 292.91 326.23 L295.37 327.46 L291.16
								 322.58 C263.52 290.73 241.28 245.29 231.19 200.21 C223.41 165.26 222.02 127.25 227.22 90.32 C230.48
								 67.32 238.82 33.72 243.78 23.83 C249.74 11.95 260.86 4.21 276.47 1.11 C281.19 0.16 290.76 0.16 294.82
								 1.07 C308.96 4.29 319.28 12.39 325.08 24.82 C327.3 29.51 328.54 33.6 329.93 40.43 C331.43 48.02
								 332.47 51.15 335.84 57.95 C342.63 71.69 355.3 88.73 374.96 110.57 C384.14 120.78 392.8 129.75 415.04
								 152.27 C443.83 181.39 446.02 183.73 454.2 194.97 C463.57 207.88 467.54 219.39 466.11 229.44 C465.68
								 232.58 464.17 237.47 459.2 251.37 C453.68 267.05 454.48 276.11 462.18 284.29 L464.84 287.11 L464.88
								 280.36 C464.96 247.35 481.68 223.05 510.83 213.48 C526.92 208.19 547.14 206.96 570.17 209.9 C614.73
								 215.54 650.99 236.91 673.24 270.63 C678.6 278.77 682.97 287.71 684.99 294.82 C685.94 298.15 685.98
								 304.86 685.11 308.88 C683.8 314.95 678.76 322.97 674.94 325.2 C670.97 327.46 670.02 327.58 655.52
								 327.62 C642.73 327.66 642.14 327.7 640.43 328.54 C638.05 329.69 634.75 332.59 631.45 336.36 C618.94
								 350.7 592.33 371.59 576.88 379.17 C571.28 381.91 571 382.11 569.77 384.14 C568.11 386.92 564.25
								 391.01 561.91 392.52 C559.37 394.15 555.59 395.1 553.01 394.74 C549.8 394.31 546.02 392.12 542.65
								 388.79 C540.26 386.4 539.15 385.61 537.36 385.01 C533.99 383.82 530.61 383.62 528.03 384.38 C525.73
								 385.01 524.81 385.81 522.15 389.26 C520.33 391.57 517.78 393.47 514.81 394.7 C513.1 395.38 511.95
								 395.54 507.62 395.5 C502.85 395.5 502.18 395.42 498.8 394.23 C494.67 392.8 489.67 390.41 484.86
								 387.47 C479.06 383.94 474.53 382.91 465.12 382.91 C450.07 382.95 428.5 387.67 405.66 395.97 C363.68
								 411.19 319.76 421.23 280.84 424.53 C273.73 425.13 248.59 425.64 243.1 425.28 ZM511.91 384.89 C514.29
								 383.7 517.23 380.8 518.46 378.42 C519.65 376.12 520.17 372.74 519.73 370.2 C518.1 360.07 506.7 355.15
								 498.12 360.82 C490.22 366.07 490.18 378.18 498.05 383.62 C500.98 385.65 503.05 386.2 506.66 386.08
								 C508.97 385.97 510.24 385.69 511.91 384.89 ZM568.78 340.89 C570.97 337.91 577.8 331.79 582.24 328.81
								 C587.25 325.48 594.12 322.06 599.28 320.35 L602.78 319.16 L601.47 318.17 C598.65 316.06 593.05 313.16
								 589.35 311.93 C579.11 308.52 571.12 310.82 566.12 318.69 C562.62 324.17 562.55 332.55 565.92 340.25
								 C566.48 341.48 567.11 342.52 567.27 342.52 C567.43 342.52 568.15 341.76 568.78 340.89 Z"
							class="st1"/>
				</g>
			</g>
			<g id="group1298-5" transform="translate(386.799,0)" v:mID="1298" v:groupContext="group">
				<title>工作表.1298</title>
				<g id="shape1287-6" v:mID="1287" v:groupContext="shape" transform="translate(-2.71783E-13,666.086) scale(1,-1)">
					<title>工作表.1287</title>
					<path d="M83.88 425.13 C82.05 424.21 81.7 423.85 77.25 417.94 C58.66 393.31 34 370.12 7.86 352.68 C4.45 350.42
								 1.35 348.23 0.99 347.76 C0 346.65 0.08 344.46 1.11 343.43 C3.3 341.24 8.46 339.89 14.7 339.89 C18.67
								 339.89 20.53 339.26 21.29 337.67 C22.84 334.21 20.61 328.54 11.91 313.96 C7.35 306.33 6.12 303.71
								 5.08 299.74 C3.89 295.05 3.46 291.12 3.46 284.89 C3.46 274.56 5.48 264.04 8.78 257.09 C10.13 254.19
								 10.96 253.03 13.07 251.09 C22.12 242.67 37.21 240.44 51.51 245.45 C66.17 250.57 80.82 263.4 93.49
								 282.19 C101.59 294.22 106.24 307.09 108.55 323.81 C109.54 331 109.58 349.59 108.59 357.77 C106.44
								 375.6 101.99 394.07 95.52 412.18 C91.39 423.62 90.36 425.28 86.98 425.56 C85.83 425.64 84.6 425.48
								 83.88 425.13 Z" class="st1"/>
				</g>
			</g>
		</g>
	</g>
</svg>
