<svg xmlns="http://www.w3.org/2000/svg" xml:space="preserve" width="914.646" height="567.523" color-interpolation-filters="sRGB" style="fill:none;fill-rule:evenodd;font-size:12px;overflow:visible;stroke-linecap:square;stroke-miterlimit:3" viewBox="0 0 685.984 425.642"><style>.st1{fill:#000;stroke:none;stroke-linecap:butt;stroke-width:.1}</style><g id="group1299-1"><g id="group1295-2"><g id="shape1289-3" transform="matrix(1 0 0 -1 0 425.642)"><path d="M243.1 425.28c-15.76-1.03-28.87-3.21-53.02-8.89-37.97-8.9-68.15-21.09-92.73-37.45C39.95 340.77 8.7 278.37 2.03 188.81c-2.03-27.2-1.51-60.8 1.19-83.4 2.94-24.19 8.1-43.81 15.69-59.38 4.88-10.05 10.08-17.39 16.99-24.07C51.63 6.71 73 2.03 94.33 9.13c7.62 2.55 9.49 3.78 16.6 11.01 8.14 8.3 10.28 11.79 12.63 20.69 1.35 5.12 2.1 10.44 2.58 18.9.83 14.58 3.1 23.36 8.82 34.68 7.34 14.41 19.5 28.08 28.12 31.49 9.93 3.93 22.71 15.61 32.29 29.55 6.79 9.93 12.94 23.08 16.52 35.35 2.38 8.26 3.61 14.73 5.2 27.2 4.13 32.53 16.96 59.34 38.92 81.22 10.45 10.45 24.59 20.78 36.9 27.01l2.46 1.23-4.21-4.88c-27.64-31.85-49.88-77.29-59.97-122.37-7.78-34.95-9.17-72.96-3.97-109.89 3.26-23 11.6-56.6 16.56-66.49 5.96-11.88 17.08-19.62 32.69-22.72 4.72-.95 14.29-.95 18.35-.04 14.14 3.22 24.46 11.32 30.26 23.75 2.22 4.69 3.46 8.78 4.85 15.61 1.5 7.59 2.54 10.72 5.91 17.52 6.79 13.74 19.46 30.78 39.12 52.62 9.18 10.21 17.84 19.18 40.08 41.7 28.79 29.12 30.98 31.46 39.16 42.7 9.37 12.91 13.34 24.42 11.91 34.47-.43 3.14-1.94 8.03-6.91 21.93-5.52 15.68-4.72 24.74 2.98 32.92l2.66 2.82.04-6.75c.08-33.01 16.8-57.31 45.95-66.88 16.09-5.29 36.31-6.52 59.34-3.58 44.56 5.64 80.82 27.01 103.07 60.73 5.36 8.14 9.73 17.08 11.75 24.19.95 3.33.99 10.04.12 14.06-1.31 6.07-6.35 14.09-10.17 16.32-3.97 2.26-4.92 2.38-19.42 2.42-12.79.04-13.38.08-15.09.92-2.38 1.15-5.68 4.05-8.98 7.82-12.51 14.34-39.12 35.23-54.57 42.81-5.6 2.74-5.88 2.94-7.11 4.97-1.66 2.78-5.52 6.87-7.86 8.38-2.54 1.63-6.32 2.58-8.9 2.22-3.21-.43-6.99-2.62-10.36-5.95-2.39-2.39-3.5-3.18-5.29-3.78-3.37-1.19-6.75-1.39-9.33-.63-2.3.63-3.22 1.43-5.88 4.88-1.82 2.31-4.37 4.21-7.34 5.44-1.71.68-2.86.84-7.19.8-4.77 0-5.44-.08-8.82-1.27-4.13-1.43-9.13-3.82-13.94-6.76-5.8-3.53-10.33-4.56-19.74-4.56-15.05.04-36.62 4.76-59.46 13.06-41.98 15.22-85.9 25.26-124.82 28.56-7.11.6-32.25 1.11-37.74.75m268.81-40.39c2.38-1.19 5.32-4.09 6.55-6.47 1.19-2.3 1.71-5.68 1.27-8.22-1.63-10.13-13.03-15.05-21.61-9.38-7.9 5.25-7.94 17.36-.07 22.8 2.93 2.03 5 2.58 8.61 2.46 2.31-.11 3.58-.39 5.25-1.19m56.87-44c2.19-2.98 9.02-9.1 13.46-12.08 5.01-3.33 11.88-6.75 17.04-8.46l3.5-1.19-1.31-.99c-2.82-2.11-8.42-5.01-12.12-6.24-10.24-3.41-18.23-1.11-23.23 6.76-3.5 5.48-3.57 13.86-.2 21.56.56 1.23 1.19 2.27 1.35 2.27s.88-.76 1.51-1.63" class="st1"/></g></g><g id="group1298-5" transform="translate(386.799)"><g id="shape1287-6" transform="matrix(1 0 0 -1 0 666.086)"><path d="M83.88 425.13c-1.83-.92-2.18-1.28-6.63-7.19C58.66 393.31 34 370.12 7.86 352.68c-3.41-2.26-6.51-4.45-6.87-4.92-.99-1.11-.91-3.3.12-4.33 2.19-2.19 7.35-3.54 13.59-3.54 3.97 0 5.83-.63 6.59-2.22 1.55-3.46-.68-9.13-9.38-23.71-4.56-7.63-5.79-10.25-6.83-14.22-1.19-4.69-1.62-8.62-1.62-14.85 0-10.33 2.02-20.85 5.32-27.8 1.35-2.9 2.18-4.06 4.29-6 9.05-8.42 24.14-10.65 38.44-5.64 14.66 5.12 29.31 17.95 41.98 36.74 8.1 12.03 12.75 24.9 15.06 41.62.99 7.19 1.03 25.78.04 33.96-2.15 17.83-6.6 36.3-13.07 54.41-4.13 11.44-5.16 13.1-8.54 13.38-1.15.08-2.38-.08-3.1-.43" class="st1"/></g></g></g></svg>